<?xml version="1.0" encoding="utf-8"?>
<!-- Generator: Adobe Illustrator 17.0.0, SVG Export Plug-In . SVG Version: 6.00 Build 0)  -->
<!DOCTYPE svg PUBLIC "-//W3C//DTD SVG 1.1//EN" "http://www.w3.org/Graphics/SVG/1.1/DTD/svg11.dtd">
<svg version="1.1" id="图层_1" xmlns="http://www.w3.org/2000/svg" xmlns:xlink="http://www.w3.org/1999/xlink" x="0px" y="0px"
	 width="24px" height="24px" viewBox="0 0 24 24" enable-background="new 0 0 24 24" xml:space="preserve">
<rect fill="none" width="24" height="24"/>
<g>
	<g>
		<path  d="M17.82,10.237c-0.026-0.127-0.07-0.206-0.146-0.273c-0.051-0.021-0.112-0.05-0.165-0.054
			c0.154-0.551,0.2-1.119,0.042-1.608c-0.314-0.964-0.912-1.427-1.458-1.649c-0.251-0.102-1.185-0.188-1.185-0.188
			s-1.937-0.237-2.671,1.837c-0.172,0.485-0.112,1.057,0.041,1.608c-0.062,0.006-0.095-0.016-0.165,0.054
			c-0.077,0.066-0.119,0.146-0.145,0.273c-0.049,0.261-0.003,0.513,0.083,0.75c0.131,0.359,0.277,0.507,0.721,0.384
			c0,0.58,0.184,0.817,0.322,0.942l0,0c0.003,0.003,0.004,0.004,0.007,0.006c0.025,0.022,0.05,0.043,0.07,0.058l-0.003,0.005
			c0.017,0.011,0.025,0.016,0.039,0.026c0.024,0.021,0.041,0.04,0.041,0.059c0,0.061,0.032,0.174,0.043,0.274
			c0.017,0.182,0.023,0.381,0.032,0.569c0.007,0.125,0.76,1.14,1.586,1.14c0.824,0,1.557-1.074,1.565-1.231
			c0.008-0.16,0.015-0.325,0.028-0.478c0.01-0.099,0.037-0.212,0.043-0.274c0.003-0.022,0.033-0.048,0.074-0.077
			c0.008-0.006,0.011-0.01,0.022-0.015c0.138-0.106,0.379-0.328,0.379-1.003c0.445,0.124,0.59-0.026,0.722-0.384
			C17.823,10.749,17.869,10.498,17.82,10.237z M17.076,9.006c0,0-0.309-0.309-0.449-0.345c-0.573-0.147-2.344,0.345-2.344,0.345
			h-0.4c0,0-0.397-0.243-0.549-0.251c-0.198-0.01-0.748,0.251-0.748,0.251l-0.42,0.377l0.396-0.627l0.474-0.285h0.599
			c0,0,1.09,0.048,1.242,0c0.154-0.048,0.802,0,0.802,0s0.06,0.001,0.149,0c0.154-0.001,0.391-0.005,0.549-0.022
			c0.25-0.027,0.549,0,0.549,0l0.349,0.361l0.313,0.764L17.076,9.006z"/>
		<path  d="M19.695,15.129l-0.26-0.337l-0.318-0.345l-0.279-0.213c-0.237-0.18-0.328-0.189-0.61-0.242
			c-0.135-0.026-0.776-0.16-1.318-0.434v1.868c-0.186-0.209-0.837-1.066-1.286-0.923c-0.172,0.056-0.281,0.075-0.471,0.082l0,0
			l0.614,3.095l-0.873,0.57l-0.873-0.594l0.578-3.073l0,0c-0.188-0.006-0.298-0.027-0.471-0.082c-0.448-0.144-1.1,0.713-1.285,0.923
			v-1.848c-0.535,0.264-1.152,0.394-1.285,0.415c-1.227,0.197-2.014,1.675-2.014,2.792c0,1.193,3.863,1.606,5.349,1.606
			s5.314-0.386,5.314-1.619c0-0.484-0.042-0.813-0.314-1.296l0,0L19.695,15.129z"/>
	</g>
	<path  d="M4.965,3.838c0,0.47-0.4,0.851-0.893,0.851H0.942c-0.494,0-0.893-0.381-0.893-0.851V3.625
		c0-0.47,0.4-0.851,0.893-0.851h3.129c0.494,0,0.893,0.381,0.893,0.851V3.838L4.965,3.838z"/>
	<path d="M4.965,9.424c0,0.47-0.4,0.851-0.893,0.851H0.942c-0.494,0-0.893-0.381-0.893-0.851V9.21
		c0-0.47,0.4-0.851,0.893-0.851h3.129c0.494,0,0.893,0.381,0.893,0.851V9.424L4.965,9.424z"/>
	<path  d="M4.965,15.239c0,0.47-0.4,0.851-0.893,0.851H0.942c-0.494,0-0.893-0.381-0.893-0.851v-0.213
		c0-0.47,0.4-0.851,0.893-0.851h3.129c0.494,0,0.893,0.381,0.893,0.851V15.239L4.965,15.239z"/>
	<path  d="M4.965,21.09c0,0.47-0.4,0.851-0.893,0.851H0.942c-0.494,0-0.893-0.381-0.893-0.851v-0.213
		c0-0.47,0.4-0.851,0.893-0.851h3.129c0.494,0,0.893,0.381,0.893,0.851V21.09L4.965,21.09z"/>
	<path  d="M23.998,23.125c0,0,0-21.847,0-22.415c0-0.567-0.968-0.71-0.968-0.71S2.545,0,2.097,0
		S1.501,0.639,1.501,0.639v1.702v0.036h1.941C3.783,2.083,4.231,1.9,4.727,1.9c1.063,0,1.924,0.82,1.924,1.832
		s-0.86,1.831-1.924,1.831c-0.525,0-1-0.201-1.347-0.526H1.501v2.926h1.941c0.342-0.294,0.789-0.478,1.286-0.478
		c1.063,0,1.924,0.82,1.924,1.832s-0.861,1.832-1.924,1.832c-0.525,0-1-0.201-1.347-0.526H1.501v3.154h1.941
		c0.342-0.294,0.789-0.478,1.286-0.478c1.063,0,1.924,0.82,1.924,1.832s-0.861,1.832-1.924,1.832c-0.525,0-1-0.201-1.347-0.526
		H1.501v3.191h1.941c0.342-0.294,0.789-0.478,1.286-0.478c1.063,0,1.924,0.82,1.924,1.832s-0.861,1.832-1.924,1.832
		c-0.525,0-1-0.201-1.347-0.526H1.501v1.048c0.074,0.425,1.006,0.638,1.006,0.638s19.629,0.07,20.747,0
		C24.37,23.48,23.998,23.125,23.998,23.125z M22.451,21.765c0,0.497-0.415,0.898-0.929,0.898H8.352
		c-0.512,0-0.929-0.402-0.929-0.898V2.283c0-0.497,0.415-0.898,0.929-0.898h13.172c0.512,0,0.929,0.402,0.929,0.898
		C22.451,2.283,22.451,21.765,22.451,21.765z"/>
</g>
</svg>
